# AST/ASF file generated using VICON BodyLanguage
# -----------------------------------------------
:version 1.10
:name VICON
:units
  mass 1.0
  length 0.45
  angle deg
:documentation
   .ast/.asf automatically generated from VICON data using
   VICON BodyBuilder and BodyLanguage model FoxedUp or BRILLIANT.MOD
:root
   order TX TY TZ RX RY RZ
   axis XYZ
   position 0 0 0  
   orientation 0 0 0 
:bonedata
  begin
     id 1 
     name lhipjoint
     direction 0.63403 -0.759788 0.143974 
     length 2.51904 
     axis 0 0 0  XYZ
  end
  begin
     id 2 
     name lfemur
     direction 0.34202 -0.939693 0  
     length 7.42313  
     axis 0 0 20  XYZ
    dof rx ry rz
    limits (-160.0 20.0)
           (-70.0 70.0)
           (-60.0 70.0)
  end
  begin
     id 3 
     name ltibia
     direction 0.34202 -0.939693 0   
     length 8.10141   
     axis 0 0 20   XYZ
    dof rx
    limits (-10.0 170.0)
  end
  begin
     id 4 
     name lfoot
     direction 0.0927455 -0.254816 0.962532   
     length 2.14078   
     axis -90 7.62852e-016 20   XYZ
    dof rx rz
    limits (-45.0 90.0)
           (-70.0 20.0)
  end
  begin
     id 5 
     name ltoes
     direction 1.53556e-011 -4.21949e-011 1   
     length 1.07182   
     axis -90 7.62852e-016 20   XYZ
    dof rx
    limits (-90.0 20.0)
  end
  begin
     id 6 
     name rhipjoint
     direction -0.659892 -0.738223 0.139888   
     length 2.59263  
     axis 0 0 0  XYZ 
  end
  begin
     id 7 
     name rfemur
     direction -0.34202 -0.939693 0   
     length 7.58575   
     axis 0 0 -20   XYZ
    dof rx ry rz
    limits (-160.0 20.0)
           (-70.0 70.0)
           (-70.0 60.0)
  end
  begin
     id 8 
     name rtibia
     direction -0.34202 -0.939693 0   
     length 8.19358   
     axis 0 0 -20   XYZ
    dof rx
    limits (-10.0 170.0)
 end
 begin
     id 9 
     name rfoot
     direction -0.0856543 -0.235333 0.968133   
     length 2.13415  
     axis -90 -7.62852e-016 -20   XYZ
    dof rx rz
    limits (-45.0 90.0)
           (-20.0 70.0)
  end
  begin
     id 10 
     name rtoes
     direction -1.53551e-011 -4.21811e-011 1   
     length 1.07055   
     axis -90 -7.62852e-016 -20   XYZ
    dof rx
    limits (-90.0 20.0)
  end
  begin
     id 11 
     name lowerback
     direction 0.025219 0.998394 -0.0507326   
     length 1.91844   
     axis 0 0 0   XYZ
    dof rx ry rz
    limits (-20.0 45.0)
           (-30.0 30.0)
           (-30.0 30.0)
  end
  begin
     id 12 
     name upperback
     direction 0.0213103 0.99967 -0.0143101   
     length 1.92246   
     axis 0 0 0   XYZ
    dof rx ry rz
    limits (-20.0 45.0)
           (-30.0 30.0)
           (-30.0 30.0)
  end
  begin
     id 13 
     name thorax
     direction 0.00920974 0.99991 0.00971518   
     length 1.92239   
     axis 0 0 0   XYZ
    dof rx ry rz
    limits (-20.0 45.0)
           (-30.0 30.0)
           (-30.0 30.0)
  end
  begin
     id 14 
     name lowerneck
     direction 0.0598257 0.997249 0.0437612   
     length 3.13679   
     axis 0 0 0   XYZ
    dof rx ry rz
    limits (-20.0 45.0)
           (-30.0 30.0)
           (-30.0 30.0)
  end
  begin
     id 15 
     name upperneck
     direction -0.035342 0.999338 0.00863891   
     length 3.16283   
     axis 0 0 0   XYZ
    dof rx ry rz
    limits (-20.0 45.0)
           (-30.0 30.0)
           (-30.0 30.0)
  end
  begin
     id 16
     name head
     direction 0.37144 0.811566 0.450991  
     length 1.2838  
     axis 0 0 0   XYZ
    dof rx ry rz
    limits (-20.0 45.0)
           (-30.0 30.0)
           (-30.0 30.0)
  end
  begin
     id 17 
     name lclavicle
     direction 0.961094 0.274654 -0.0293862  
     length 3.63466  
     axis 0 0 0   XYZ
    dof ry rz
    limits (-20.0 10.0)
           (0.0 20.0)
  end
  begin
     id 18 
     name lhumerus
     direction 1 -4.48963e-011 1.10303e-027   
     length 5.12842   
     axis 180 -30 -90   XYZ
    dof rx ry rz
    limits (-60.0 90.0)
           (-90.0 90.0)
           (-90.0 90.0)
  end
  begin
     id 19
     name lradius
     direction 1 -4.48968e-011 4.13199e-027   
     length 3.47396   
     axis 180 -30 -90   XYZ
    dof rx
    limits (-10.0 170.0)
  end
  begin
     id 20
     name lwrist
     direction 1 -4.48948e-011 9.12708e-027   
     length 1.73698   
     axis -6.84618e-015 90 90   XYZ
    dof ry
    limits (-180.0 0.0)
 end
  begin
     id 21 
     name lhand
     direction 1 -4.49057e-011 1.82749e-026   
     length 0.728607   
     axis -1.16502e-014 90 90   XYZ
    dof rx rz
    limits (-90.0 90.0)
           (-45.0 45.0)
  end
  begin
     id 22 
     name lfingers
     direction 1 -4.48912e-011 3.64949e-026   
     length 0.587422   
     axis -2.33008e-014 90 90   XYZ
    dof rx
    limits (0.0 90.0)
  end
  begin
     id 23
     name lthumb
     direction 0.707107 -6.34995e-011 0.707107   
     length 0.843424   
     axis -90 45 5.69224e-014   XYZ
    dof rx rz
    limits (-45.0 45.0)
           (-45.0 45.0)
  end
  begin
     id 24 
     name rclavicle
     direction -0.90514 0.421881 -0.0523369   
     length 3.57139  
     axis 0 0 0   XYZ 
    dof ry rz
    limits (-10.0 20.0)
           (-20.0 0.0)
  end
  begin
     id 25 
     name rhumerus
     direction -1 -4.48954e-011 -1.76662e-027  
     length 5.48477   
     axis 180 30 90   XYZ
    dof rx ry rz
    limits (-90.0 60.0)
           (-90.0 90.0)
           (-90.0 90.0)
  end
  begin
     id 26 
     name rradius
     direction -1 -4.48982e-011 1.26841e-027   
     length 3.47856   
     axis 180 30 90   XYZ
    dof rx
    limits (-10.0 170.0)
  end
  begin
     id 27 
     name rwrist
     direction -1 -4.49037e-011 9.13554e-027   
     length 1.73928   
     axis -6.84618e-015 -90 -90   XYZ
    dof ry
    limits (-180.0 0.0)
  end
  begin
     id 28
     name rhand
     direction -1 -4.48871e-011 1.82397e-026   
     length 0.709974   
     axis -1.16502e-014 -90 -90   XYZ
    dof rx rz
    limits (-90.0 90.0)
           (-45.0 45.0)
  end
  begin
     id 29
     name rfingers
     direction -1 -4.48994e-011 3.65258e-026   
     length 0.572399   
     axis -2.33008e-014 -90 -90   XYZ
    dof rx
    limits (0.0 90.0)
  end
  begin
     id 30
     name rthumb
     direction -0.707107 -6.34861e-011 0.707107   
     length 0.821855   
     axis -90 -45 -5.69224e-014   XYZ
    dof rx rz
    limits (-45.0 45.0)
           (-45.0 45.0)
  end
:hierarchy
  begin
    root lhipjoint rhipjoint lowerback
    lhipjoint lfemur
    lfemur ltibia
    ltibia lfoot
    lfoot ltoes
    rhipjoint rfemur
    rfemur rtibia
    rtibia rfoot
    rfoot rtoes
    lowerback upperback
    upperback thorax
    thorax lowerneck lclavicle rclavicle
    lowerneck upperneck
    upperneck head
    lclavicle lhumerus
    lhumerus lradius
    lradius lwrist
    lwrist lhand lthumb
    lhand lfingers
    rclavicle rhumerus
    rhumerus rradius
    rradius rwrist
    rwrist rhand rthumb
    rhand rfingers
  end

#!OML:ASF F:\VICON\USERDATA\INSTALL\Justin1\Justin1.ASF
:FULLY-SPECIFIED
:DEGREES
2856
root 0.00309331 17.9272 -3.66114 1.29789 4.30628 -4.30807
lowerback 5.68824 -0.70944 2.83663
upperback -0.107274 -0.617592 4.03104
thorax -3.29067 -0.320456 2.62723
lowerneck -15.1773 -2.08111 -3.42196
upperneck 18.4328 -1.30587 -3.46991
head 8.24387 -1.2136 -0.744799
rclavicle 1.16289e-014 1.27222e-014
rhumerus -36.2206 11.7075 -82.1952
rradius 109.132
rwrist 41.3561
rhand -53.6436 78.9019
rfingers 7.12502
rthumb -26.0821 50.6728
lclavicle 1.16289e-014 1.27222e-014
lhumerus -36.0518 -5.91505 89.7586
lradius 102.856
lwrist -60.1735
lhand -51.4186 64.2604
lfingers 7.12502
lthumb -23.9501 267.213
rfemur -15.1338 4.88833 29.4791
rtibia 38.3319
rfoot -20.6269 -13.0465
rtoes 24.9838
lfemur -15.1694 -7.98473 -17.5796
ltibia 37.3853
lfoot -21.596 7.4625
ltoes 4.65052
2857
root 0.00357959 17.9364 -3.67716 1.31329 4.53469 -4.16988
lowerback 5.54698 -0.687499 2.7489
upperback -0.0988264 -0.604569 3.9641
thorax -3.2024 -0.312799 2.60303
lowerneck -15.0891 -2.15358 -3.3983
upperneck 18.4071 -1.42323 -3.43917
head 8.21886 -1.26293 -0.750383
rclavicle 1.26228e-014 2.3059e-014
rhumerus -33.8344 11.7092 -81.4835
rradius 109.062
rwrist 41.094
rhand -53.6436 78.9019
rfingers 7.12502
rthumb -26.0821 50.6728
lclavicle 1.26228e-014 2.3059e-014
lhumerus -33.6279 -6.4127 89.3379
lradius 102.573
lwrist -60.285
lhand -51.229 64.925
lfingers 7.12502
lthumb -23.7683 266.525
rfemur -15.0842 4.69859 29.3131
rtibia 38.1487
rfoot -20.5645 -13.0327
rtoes 25.1902
lfemur -15.1443 -8.12756 -17.7251
ltibia 37.2188
lfoot -21.5146 7.28689
ltoes 5.16458
2858
root 0.00182957 17.9503 -3.69405 1.32012 4.68853 -4.18172
lowerback 5.36317 -0.663812 2.77398
upperback -0.0109592 -0.586815 3.9307
thorax -3.0091 -0.303919 2.54817
lowerneck -15.2405 -2.21158 -3.48703
upperneck 18.4733 -1.51276 -3.24069
head 8.2702 -1.29348 -0.68259
rclavicle 1.62506e-014 2.38542e-015
rhumerus -31.2157 11.7058 -80.7459
rradius 108.768
rwrist 40.7182
rhand -53.6436 78.9019
rfingers 7.12502
rthumb -26.0821 50.6728
lclavicle 1.62506e-014 2.38542e-015
lhumerus -30.8852 -6.73937 88.786
lradius 101.973
lwrist -60.2975
lhand -51.3555 65.4219
lfingers 7.12502
lthumb -23.8896 266.044
rfemur -15.042 4.57285 29.3115
rtibia 37.9623
rfoot -20.4873 -12.9755
rtoes 25.3819
lfemur -15.148 -8.20187 -17.7049
ltibia 37.0563
lfoot -21.3646 7.24985
ltoes 4.95236
2859
root -0.00457011 17.9606 -3.71517 1.37255 4.76739 -4.28636
lowerback 5.26368 -0.63161 2.82852
upperback 0.00253581 -0.546868 3.92163
thorax -2.94079 -0.284606 2.50313
lowerneck -15.3565 -2.2612 -3.55536
upperneck 18.5541 -1.58362 -3.10712
head 8.31982 -1.3203 -0.637403
rclavicle 1.82385e-014 1.11319e-014
rhumerus -28.6736 11.7189 -80.1385
rradius 108.519
rwrist 39.4405
rhand -51.9575 68.445
rfingers 7.12502
rthumb -24.4668 39.9876
lclavicle 1.82385e-014 1.11319e-014
lhumerus -28.0016 -6.91052 88.1525
lradius 101.072
lwrist -60.3651
lhand -51.4474 65.4657
lfingers 7.12502
lthumb -23.9777 266.012
rfemur -15.1276 4.56955 29.4331
rtibia 37.7972
rfoot -20.2473 -13.1078
rtoes 24.7813
lfemur -15.2548 -8.17511 -17.5512
ltibia 36.9171
lfoot -21.1779 7.24091
ltoes 4.24482
2860
root -0.0121514 17.9634 -3.7427 1.43948 4.8503 -4.34548
lowerback 5.2799 -0.608574 2.81088
upperback -0.0616363 -0.51324 3.91692
thorax -3.01692 -0.267942 2.5067
lowerneck -15.3479 -2.30847 -3.50757
upperneck 18.5901 -1.64957 -3.15493
head 8.32947 -1.35357 -0.669218
rclavicle 2.08724e-015 2.46493e-014
rhumerus -26.1478 11.92 -79.5992
rradius 108.816
rwrist 36.4075
rhand -47.6999 63.2744
rfingers 7.12502
rthumb -20.3801 34.3238
lclavicle 2.08724e-015 2.46493e-014
lhumerus -25.2116 -7.29934 87.4052
lradius 100.127
lwrist -60.277
lhand -51.4648 65.8015
lfingers 7.12502
lthumb -23.9944 265.678
rfemur -15.2483 4.65505 29.4951
rtibia 37.6569
rfoot -20.1943 -13.0758
rtoes 25.5413
lfemur -15.424 -8.15142 -17.4355
ltibia 36.8081
lfoot -20.9796 7.25726
ltoes 3.45114
2861
root -0.0185303 17.9643 -3.77465 1.49222 4.89417 -4.37271
lowerback 5.34068 -0.56095 2.77051
upperback -0.145041 -0.445238 3.90139
thorax -3.13871 -0.23405 2.50999
lowerneck -15.3831 -2.36931 -3.50575
upperneck 18.7726 -1.7334 -3.12073
head 8.39757 -1.39304 -0.670534
rclavicle -2.28105e-014 1.66979e-014
rhumerus -23.5942 11.6271 -78.8871
rradius 108.339
rwrist 35.2802
rhand -46.2728 63.7956
rfingers 7.12502
rthumb -19.008 34.7044
lclavicle -2.28105e-014 1.66979e-014
lhumerus -22.4308 -7.90996 86.5683
lradius 99.0824
lwrist -60.1115
lhand -51.5567 66.9092
lfingers 7.12502
lthumb -24.0825 264.582
rfemur -15.3674 4.80308 29.5138
rtibia 37.5542
rfoot -20.1823 -13.0151
rtoes 26.642
lfemur -15.5881 -8.1914 -17.3723
ltibia 36.7072
lfoot -20.7861 7.30732
ltoes 3.27116
2862
root -0.022342 17.97 -3.80313 1.52143 4.96559 -4.36788
lowerback 5.325 -0.534373 2.68525
upperback -0.168557 -0.414214 3.9206
thorax -3.15418 -0.217136 2.57547
lowerneck -15.4568 -2.44521 -3.69688
upperneck 18.9099 -1.81937 -2.94894
head 8.46151 -1.43236 -0.594391
rclavicle 3.77691e-015 7.15625e-015
rhumerus -20.8763 10.9281 -77.8421
rradius 105.095
rwrist 41.9878
rhand -55.4591 75.2906
rfingers 7.12502
rthumb -27.8192 47.3299
lclavicle 3.77691e-015 7.15625e-015
lhumerus -19.4532 -8.18976 85.8358
lradius 97.7825
lwrist -60.0892
lhand -51.7442 67.34
lfingers 7.12502
lthumb -24.2623 264.175
rfemur -15.4836 4.8128 29.4988
rtibia 37.4627
rfoot -19.9645 -13.1099
rtoes 26.2268
lfemur -15.6793 -8.21465 -17.3543
ltibia 36.5955
lfoot -20.6153 7.2906
ltoes 3.2846
2863
root -0.0220625 17.9791 -3.82733 1.56314 5.15645 -4.26391
lowerback 5.22152 -0.567194 2.576
upperback -0.143403 -0.472577 3.88758
thorax -3.06773 -0.244503 2.6052
lowerneck -15.4435 -2.49815 -3.81188
upperneck 18.8196 -1.89964 -2.79847
head 8.43153 -1.461 -0.533228
rclavicle -1.47101e-014 -1.82882e-014
rhumerus -17.9008 10.7972 -76.9897
rradius 103.795
rwrist 42.0123
rhand -55.7443 76.8391
rfingers 7.12502
rthumb -28.0919 48.9228
lclavicle -1.47101e-014 -1.82882e-014
lhumerus -16.2704 -8.1381 85.1469
lradius 96.1635
lwrist -60.2795
lhand -51.926 67.3918
lfingers 7.12502
lthumb -24.4366 264.147
rfemur -15.5495 4.65356 29.3583
rtibia 37.364
rfoot -19.859 -13.0573
rtoes 26.3777
lfemur -15.7452 -8.3298 -17.4526
ltibia 36.4595
lfoot -20.4744 7.19047
ltoes 3.26934
2864
root -0.0265601 17.9878 -3.85223 1.55702 5.23278 -4.30325
lowerback 5.16158 -0.572412 2.61258
upperback -0.108716 -0.484472 3.81176
thorax -2.99869 -0.251381 2.50536
lowerneck -15.4002 -2.49727 -3.67908
upperneck 18.7137 -1.95718 -2.70268
head 8.3864 -1.46653 -0.527653
rclavicle -8.99501e-015 1.27222e-014
rhumerus -15.0327 10.5266 -76.3307
rradius 102.399
rwrist 42.0304
rhand -55.5735 77.7376
rfingers 7.12502
rthumb -27.9286 49.7946
lclavicle -8.99501e-015 1.27222e-014
lhumerus -13.034 -8.06384 84.3118
lradius 94.2926
lwrist -60.6096
lhand -52.0669 67.8158
lfingers 7.12502
lthumb -24.5716 263.741
rfemur -15.5682 4.62566 29.4014
rtibia 37.265
rfoot -19.7454 -13.0688
rtoes 26.4569
lfemur -15.7584 -8.39477 -17.3759
ltibia 36.3069
lfoot -20.3499 7.09293
ltoes 3.35358
2865
root -0.0339764 17.9939 -3.88326 1.53162 5.32269 -4.30098
lowerback 5.16057 -0.53339 2.5902
upperback -0.0763267 -0.438144 3.72176
thorax -2.96612 -0.228521 2.42044
lowerneck -15.5355 -2.54851 -3.47664
upperneck 18.8694 -2.06182 -2.7249
head 8.46 -1.50697 -0.58434
rclavicle -1.83876e-015 -1.11319e-014
rhumerus -12.1368 10.0957 -75.6421
rradius 100.74
rwrist 42.1067
rhand -55.2568 77.1632
rfingers 7.12502
rthumb -27.6257 49.1714
lclavicle -1.83876e-015 -1.11319e-014
lhumerus -9.78173 -8.02683 83.5805
lradius 92.2493
lwrist -60.9025
lhand -52.0181 67.4543
lfingers 7.12502
lthumb -24.5248 264.096
rfemur -15.6126 4.66466 29.405
rtibia 37.1723
rfoot -19.6248 -13.1088
rtoes 26.7796
lfemur -15.8083 -8.46015 -17.3351
ltibia 36.1985
lfoot -20.2256 6.94958
ltoes 3.4582
2866
root -0.0381701 17.9992 -3.91482 1.44379 5.42421 -4.19865
lowerback 5.27354 -0.489978 2.47038
upperback -0.0411219 -0.385309 3.66169
thorax -2.99387 -0.200916 2.42239
lowerneck -15.6592 -2.63166 -3.41514
upperneck 18.9883 -2.17067 -2.77868
head 8.52129 -1.56196 -0.628764
rclavicle -1.28216e-014 -2.22639e-014
rhumerus -9.09533 9.67091 -74.8726
rradius 98.7627
rwrist 42.2664
rhand -54.7378 74.6599
rfingers 7.12502
rthumb -27.1293 46.5896
lclavicle -1.28216e-014 -2.22639e-014
lhumerus -6.50534 -7.83532 83.0893
lradius 90.0057
lwrist -61.0662
lhand -52.1461 67.2627
lfingers 7.12502
lthumb -24.6475 264.304
rfemur -15.589 4.60145 29.2896
rtibia 37.0828
rfoot -19.5111 -13.1054
rtoes 27.0155
lfemur -15.8003 -8.54788 -17.4427
ltibia 36.1458
lfoot -20.1078 6.90615
ltoes 3.27893
2867
root -0.0450666 18.0003 -3.94509 1.31213 5.34447 -4.35392
lowerback 5.44708 -0.423004 2.53464
upperback 0.00102609 -0.283327 3.71687
thorax -3.05041 -0.150748 2.43724
lowerneck -15.7705 -2.70844 -3.52873
upperneck 19.0253 -2.2537 -2.72148
head 8.55663 -1.60438 -0.603087
rclavicle -1.81391e-014 1.11319e-014
rhumerus -5.99071 9.31313 -74.1298
rradius 96.5125
rwrist 42.4166
rhand -54.2199 72.9185
rfingers 7.12502
rthumb -26.6338 44.7719
lclavicle -1.81391e-014 1.11319e-014
lhumerus -3.1507 -7.5218 82.678
lradius 87.5484
lwrist -61.0052
lhand -52.3411 67.3962
lfingers 7.12502
lthumb -24.8345 264.197
rfemur -15.5383 4.7366 29.4707
rtibia 37.0007
rfoot -19.3989 -13.1073
rtoes 27.2407
lfemur -15.7841 -8.50425 -17.2621
ltibia 36.1389
lfoot -20.0022 6.93584
ltoes 3.02808
